<?xml version="1.0" encoding="utf-8"?>
<!-- Generator: Adobe Illustrator 22.0.1, SVG Export Plug-In . SVG Version: 6.00 Build 0)  -->
<svg version="1.1" id="Layer_1" xmlns="http://www.w3.org/2000/svg" xmlns:xlink="http://www.w3.org/1999/xlink" x="0px" y="0px"
	 viewBox="0 0 51 48" style="enable-background:new 0 0 51 48;" xml:space="preserve">
<style type="text/css">
	.st0{fill:#A49AC3;}
	.st1{fill:#50A0B2;}
	.st2{fill:#FFFFFF;}
</style>
<path id="icon" class="st0" d="M-354.7,26v-9.9c0-0.4-0.2-0.8-0.5-0.9l-8.8-5.1V6.5c0-0.4-0.2-0.7-0.5-0.9l-8.8-5.2l0,0l-0.5-0.2
	l0,0h-0.1l-0.4,0.1h-0.1l-8.8,5.2c-0.3,0.2-0.5,0.6-0.5,0.9V10l-8.8,5c-0.3,0.2-0.6,0.6-0.6,1v9.9l-4.4,2.6
	c-0.3,0.2-0.5,0.6-0.5,0.9v10.4c0,0.4,0.2,0.7,0.5,0.9l8.8,5.2l0.6,0.2l0.6-0.2l4.6-2.7l8.6,4.9l0.5,0.1l0.5-0.1l8.5-4.9l4.6,2.7
	l0.6,0.2l0.6-0.2l8.8-5.2c0.3-0.2,0.5-0.6,0.5-0.9V29.5c0-0.4-0.2-0.7-0.5-0.9L-354.7,26z M-352.1,37.6l-6.5-4.1v-7.3l6.5,3.9V37.6z
	 M-374,12.4l6.9,4.3l-6.9,4.1l-6.9-4.1L-374,12.4z M-366.3,14.6l-6.5-4.1V3.2l6.5,3.9V14.6L-366.3,14.6z M-375.1,3.2v7.3l-6.6,4.1
	V7.1L-375.1,3.2z M-389.3,26.2v7.3l-6.6,4.1v-7.5L-389.3,26.2z M-380.6,30.1v7.5l-6.6-4.1v-7.3L-380.6,30.1z M-388.2,43.8l-6.9-4.1
	l6.9-4.3l6.9,4.3L-388.2,43.8z M-374,46l-7-4l2-1.2c0.3-0.2,0.5-0.6,0.5-0.9V29.5c0-0.4-0.2-0.7-0.5-0.9l-8.8-5.2l0,0l-0.5-0.1l0,0
	h-0.1l-0.4,0.1h-0.1l-2.2,1.3v-7.9l7.1-4.1V17c0,0.4,0.2,0.7,0.5,0.9l8.8,5.2l0.6,0.2l0.6-0.2l8.8-5.2c0.3-0.2,0.5-0.6,0.5-0.9v-4.3
	l7.2,4.1v8l-2.2-1.3l0,0l-0.5-0.1l0,0h-0.1l-0.4,0.1h-0.1l-8.8,5.2c-0.3,0.2-0.5,0.6-0.5,0.9V40c0,0.4,0.2,0.7,0.5,0.9l2,1.2
	L-374,46z M-360.8,26.2v7.3l-6.6,4.1v-7.5L-360.8,26.2z M-359.7,43.8l-6.9-4.1l6.9-4.3l6.9,4.3L-359.7,43.8z"/>
<path id="Stats_2" class="st1" d="M48.5,0c-0.5,0-1,0.4-1,1l0,0v4.8l-7.4,3.8c-1.9-2.4-5.4-2.9-7.8-1s-2.9,5.4-1,7.8
	c0.4,0.5,0.8,0.9,1.3,1.2l-2.4,5.5c-2.9-0.8-6,1-6.7,3.9c-0.2,0.9-0.2,1.9,0,2.8L18,32.2c-1.7-2.6-5.2-3.2-7.7-1.5
	c-2.6,1.7-3.2,5.2-1.5,7.7c0.4,0.6,0.8,1,1.4,1.4l-2.9,6H2.5c-0.5,0-1,0.4-1,1s0.4,1,1,1h43.3c2,0,3.7-1.6,3.7-3.7V1
	C49.5,0.4,49,0,48.5,0z M35.8,9.4c1.3,0,2.6,0.7,3.2,1.9l0,0l0,0c0.3,0.5,0.4,1.1,0.4,1.6c0,2-1.6,3.6-3.6,3.6s-3.6-1.6-3.6-3.6
	S33.8,9.4,35.8,9.4L35.8,9.4z M28.9,24.9c2,0,3.6,1.6,3.6,3.6s-1.6,3.6-3.6,3.6s-3.6-1.6-3.6-3.6C25.3,26.6,26.9,24.9,28.9,24.9
	L28.9,24.9z M13.4,31.8c2,0,3.6,1.6,3.6,3.6S15.4,39,13.4,39c-0.5,0-1.1-0.1-1.5-0.4l0,0l0,0c-1.8-0.8-2.6-3-1.7-4.8
	C10.7,32.6,12,31.8,13.4,31.8z M45.8,46H9.5l2.5-5.2c0.5,0.1,1,0.2,1.5,0.2c3.1,0,5.6-2.5,5.6-5.6c0-0.4-0.1-0.9-0.2-1.3l5.5-2.4
	c1.7,2.6,5.2,3.2,7.7,1.5c2.6-1.7,3.2-5.2,1.5-7.7c-0.4-0.6-0.9-1.1-1.5-1.5l2.4-5.5c0.4,0.1,0.9,0.2,1.3,0.2c3.1,0,5.6-2.5,5.6-5.6
	c0-0.6-0.1-1.1-0.3-1.7L47.5,8v36.3C47.5,45.3,46.8,46,45.8,46z"/>
<path id="business_bag" class="st2" d="M446.1,48h-38.2c-3.5,0-6.4-2.9-6.4-6.5V15.7c0-3.5,2.8-6.4,6.4-6.5h38.2
	c3.5,0,6.4,2.9,6.4,6.5v25.8C452.5,45.1,449.7,48,446.1,48z M407.9,11.1c-2.5,0-4.6,2.1-4.6,4.6v25.8c0,2.5,2,4.6,4.6,4.6h38.2
	c2.5,0,4.6-2.1,4.6-4.6V15.7c0-2.5-2-4.6-4.6-4.6H407.9z M438.8,11.1h-24.6V6.5c0-3.5,2.8-6.4,6.4-6.5h11.9c3.5,0,6.4,2.9,6.4,6.5
	v4.6H438.8z M416.1,9.2H437V6.5c0-2.5-2-4.6-4.6-4.6h-11.8c-2.5,0-4.6,2.1-4.6,4.6v2.7H416.1z M444.3,19.4h-34.6
	c-0.5,0-0.9-0.4-0.9-1c0-0.5,0.4-0.9,0.9-0.9h34.6c0.5,0,0.9,0.4,0.9,1C445.2,19,444.8,19.4,444.3,19.4z M444.3,29.5h-34.6
	c-0.5,0-0.9-0.4-0.9-1c0-0.5,0.4-0.9,0.9-0.9h34.6c0.5,0,0.9,0.4,0.9,1C445.2,29.1,444.8,29.5,444.3,29.5z M444.3,39.7h-34.6
	c-0.5,0-0.9-0.4-0.9-1c0-0.5,0.4-0.9,0.9-0.9h34.6c0.5,0,0.9,0.4,0.9,1C445.2,39.3,444.8,39.7,444.3,39.7z"/>
<path id="target_up" class="st2" d="M-375,320c-13.5,0-24.5-11-24.5-24.5s11-24.5,24.5-24.5s24.5,11,24.5,24.5S-361.5,320-375,320z
	 M-375,272.9c-12.5,0-22.6,10.1-22.6,22.6s10.1,22.6,22.6,22.6s22.6-10.1,22.6-22.6S-362.5,272.9-375,272.9z M-396.1,305.6l-1.2-1.4
	l8-7l7.9,4.4l1.7-10.4l8.9-4.9l0.9,1.6l-8.1,4.5l-2,12.2l-9.1-5L-396.1,305.6z M-368.4,297.6l-1.8-0.5l3.5-12.2l-11.3-2.6l0.4-1.8
	l13.2,3L-368.4,297.6z"/>
<path id="globe" class="st2" d="M26.5,270L26.5,270c-13.9,0-25.1,11.2-25.1,25s11.2,25,25,25l0,0l0,0c13.8,0,25-11.2,25-25
	S40.3,270,26.5,270z M27.5,285c2.6-0.1,5.2-0.4,7.7-1c0.8,3.3,1.2,6.7,1.3,10.1h-9V285L27.5,285z M27.5,283v-10.8
	c2.7,0.7,5.4,4.3,7.2,9.9C32.3,282.6,29.9,282.9,27.5,283z M25.5,272.1V283c-2.4-0.1-4.9-0.4-7.2-1C20,276.5,22.8,272.8,25.5,272.1z
	 M25.5,285v9h-9.1c0-3.4,0.5-6.8,1.3-10.1C20.3,284.5,22.9,284.9,25.5,285z M14.4,294H3.5c0.2-5,2-9.7,5.2-13.6
	c2.2,1.2,4.6,2.2,7.1,3C14.9,286.9,14.5,290.4,14.4,294z M14.4,296c0.1,3.6,0.5,7.1,1.4,10.6c-2.5,0.7-4.8,1.7-7.1,3
	c-3.2-3.8-5-8.6-5.2-13.6H14.4L14.4,296z M16.4,296h9.1v9c-2.6,0.1-5.2,0.4-7.8,1C16.9,302.8,16.5,299.4,16.4,296z M25.5,307v10.8
	c-2.7-0.7-5.5-4.3-7.2-9.9C20.6,307.4,23.1,307.1,25.5,307z M27.5,317.8V307c2.4,0.1,4.8,0.4,7.2,1
	C32.9,313.5,30.2,317.1,27.5,317.8z M27.5,305v-9h9c0,3.4-0.5,6.8-1.3,10.1C32.7,305.4,30.1,305.1,27.5,305z M38.5,296h11
	c-0.2,5-2,9.7-5.2,13.6c-2.3-1.2-4.7-2.3-7.1-3C38,303.1,38.5,299.6,38.5,296z M38.5,294c-0.1-3.6-0.5-7.1-1.4-10.6
	c2.5-0.7,4.9-1.8,7.1-3c3.2,3.8,5,8.6,5.2,13.6H38.5z M42.9,278.9c-2,1.1-4.1,1.9-6.3,2.6c-0.9-3.3-2.5-6.3-4.8-8.8
	C36,273.6,39.9,275.8,42.9,278.9L42.9,278.9z M21.1,272.7c-2.2,2.5-3.8,5.6-4.7,8.8c-2.2-0.7-4.2-1.5-6.2-2.6
	C13.1,275.8,16.9,273.7,21.1,272.7L21.1,272.7z M10.1,311.1c2-1.1,4.1-1.9,6.2-2.6c0.9,3.3,2.5,6.3,4.7,8.8
	C16.9,316.3,13.1,314.2,10.1,311.1z M31.9,317.4c2.2-2.6,3.9-5.6,4.8-8.9c2.2,0.7,4.3,1.5,6.3,2.6C39.9,314.2,36,316.4,31.9,317.4
	L31.9,317.4z"/>
<path id="icon-2" class="st0" d="M447.6,274c-4.2-4.2-13.1-1.4-21,6.5c-2,2.1-3.9,4.3-5.6,6.5h-11.5c-2.7,0.2-5,1.8-6.1,4.2
	l-1.9,5.5c-0.2,0.5,0.1,1.1,0.6,1.3c0.1,0,0.2,0.1,0.3,0.1h5c1.7,0,3.6,0.6,4,2c-0.9,1.3-1.7,2.6-2.5,3.9c-0.3,0.4-0.2,0.9,0.1,1.2
	l0.3,0.3c-3.7,1.3-6.4,4.4-7,8.3l-0.8,5c-0.1,0.5,0.3,1.1,0.8,1.2c0.1,0,0.1,0,0.2,0h0.2l5-0.8c3.9-0.6,7.1-3.3,8.3-7l0.3,0.3
	c0.3,0.3,0.8,0.4,1.2,0.1c1.3-0.8,2.6-1.7,3.9-2.5c1.4,0.4,2,2.2,2,4v5c0,0.6,0.4,1,1,1l0.3-0.1l5.4-1.9c2.4-1.1,4.1-3.4,4.2-6.1
	v-11.4c2.3-1.7,4.5-3.6,6.5-5.6C449,287,451.8,278.2,447.6,274z M412.7,298.1c-1.3-1.4-3.2-2.2-5.2-2.1h-3.6l1.4-4.1
	c0.8-1.6,2.4-2.7,4.2-2.9h9.9c-1.7,2.2-3.5,4.7-5.3,7.2L412.7,298.1z M407.4,317.2l-3.6,0.6l0.6-3.6c0.6-3.5,3.2-6.3,6.7-7l3.4,3.4
	C413.6,313.9,410.9,316.6,407.4,317.2z M432.5,312c-0.2,1.8-1.2,3.4-2.9,4.2l-4.1,1.4V314c0.1-1.9-0.7-3.8-2.1-5.2l1.9-1.4
	c2.5-1.8,5-3.6,7.2-5.3V312L432.5,312z M433.1,299.1l-0.2,0.1l-8.9,6.7c-2.2,1.5-4.5,3.1-6.8,4.5l-0.7-0.7l-0.2-0.4l-4-4l-0.4-0.2
	l-0.7-0.7c1.5-2.3,3-4.6,4.5-6.8l6.7-8.9l0.1-0.2c1.7-2.3,3.6-4.4,5.5-6.5c6.9-6.9,14.9-9.8,18.2-6.5s0.4,11.3-6.5,18.2
	C437.6,295.5,435.4,297.4,433.1,299.1L433.1,299.1z M431.6,282.7c-2,2-2,5.2,0,7.2s5.2,2,7.2,0s2-5.2,0-7.2l0,0
	C436.8,280.7,433.6,280.7,431.6,282.7L431.6,282.7z M437.4,288.5c-1.2,1.2-3.2,1.2-4.4,0c-0.6-0.6-0.9-1.4-0.9-2.2
	c0-1.7,1.4-3.1,3.1-3.1s3.1,1.4,3.1,3.1C438.3,287.1,438,287.9,437.4,288.5L437.4,288.5z"/>
</svg>
