<?xml version="1.0" encoding="utf-8"?>
<!-- Generator: Adobe Illustrator 22.0.1, SVG Export Plug-In . SVG Version: 6.00 Build 0)  -->
<svg version="1.1" id="Layer_1" xmlns="http://www.w3.org/2000/svg" xmlns:xlink="http://www.w3.org/1999/xlink" x="0px" y="0px"
	 viewBox="0 0 52 53" style="enable-background:new 0 0 52 53;" xml:space="preserve">
<style type="text/css">
	.st0{fill:#FFFFFF;}
	.st1{fill:#50A0B2;}
</style>
<path id="icon" class="st0" d="M-357.5,1h-37.3c-4.2,0-7.7,3.4-7.7,7.7v37.2c0,4.2,3.4,7.7,7.7,7.7h37.3c4.2,0,7.7-3.4,7.7-7.7V8.7
	C-349.8,4.4-353.2,1-357.5,1z M-394.7,3.2h17.5v4.4c0,1.8-1.5,3.3-3.3,3.3h-1.5c-0.8-0.7-1.8-1.1-2.9-1.1c-2.4,0-4.4,2-4.4,4.4
	c0,2.4,2,4.4,4.4,4.4c1.1,0,2.1-0.4,2.9-1.1h1.5c1.8,0,3.3,1.5,3.3,3.3v5.5h-5.5c-3,0-5.5,2.5-5.5,5.5v2.2h0.1
	c0,0.2,0.2,0.4,0.3,0.6c0.5,0.4,0.7,1,0.7,1.6c0,1.2-1,2.2-2.2,2.2c-1.2,0-2.2-1-2.2-2.2c0-0.6,0.3-1.2,0.7-1.6
	c0.2-0.1,0.3-0.3,0.3-0.6h0.1v-2.2c0-3-2.5-5.5-5.5-5.5h-4.4V8.7C-400.2,5.6-397.7,3.2-394.7,3.2z M-400.2,45.9V28.4h4.4
	c1.8,0,3.3,1.5,3.3,3.3v1.5c-0.7,0.8-1.1,1.8-1.1,2.9c0,2.4,2,4.4,4.4,4.4c2.4,0,4.4-2,4.4-4.4c0-1.1-0.4-2.1-1.1-2.9v-1.5
	c0-1.8,1.5-3.3,3.3-3.3h5.5v5.5c0,3,2.5,5.5,5.5,5.5h2.2v-0.1c0.2,0,0.4-0.2,0.6-0.3c0.4-0.5,1-0.7,1.6-0.7c1.2,0,2.2,1,2.2,2.2
	c0,1.2-1,2.2-2.2,2.2c-0.6,0-1.2-0.3-1.6-0.7c-0.1-0.2-0.3-0.3-0.6-0.3v0h-2.2c-3,0-5.5,2.5-5.5,5.5v4.4h-17.5
	C-397.7,51.4-400.2,48.9-400.2,45.9z M-357.5,51.4H-375V47c0-1.8,1.5-3.3,3.3-3.3h1.5c0.8,0.7,1.8,1.1,2.9,1.1c2.4,0,4.4-2,4.4-4.4
	c0-2.4-2-4.4-4.4-4.4c-1.1,0-2.1,0.4-2.9,1.1h-1.5c-1.8,0-3.3-1.5-3.3-3.3c0,0,0,0,0,0v-5.5h5.5c3,0,5.5-2.5,5.5-5.5v-2.2h-0.1
	c0-0.2-0.2-0.4-0.3-0.6c-0.5-0.4-0.7-1-0.7-1.6c0-1.2,1-2.2,2.2-2.2c1.2,0,2.2,1,2.2,2.2c0,0.6-0.3,1.2-0.7,1.6
	c-0.2,0.1-0.3,0.3-0.3,0.6h-0.1v2.2c0,3,2.5,5.5,5.5,5.5h4.4v17.5C-352,48.9-354.4,51.4-357.5,51.4L-357.5,51.4z M-352,26.2h-4.4
	c-1.8,0-3.3-1.5-3.3-3.3v-1.5c0.7-0.8,1.1-1.8,1.1-2.9c0-2.4-2-4.4-4.4-4.4c-2.4,0-4.4,2-4.4,4.4c0,1.1,0.4,2.1,1.1,2.9v1.5
	c0,1.8-1.5,3.3-3.3,3.3h-5.5v-5.5c0-3-2.5-5.5-5.5-5.5h-2.2v0.1c-0.2,0-0.4,0.2-0.6,0.3c-0.4,0.5-1,0.7-1.6,0.7
	c-1.2,0-2.2-1-2.2-2.2c0-1.2,1-2.2,2.2-2.2c0.6,0,1.2,0.3,1.6,0.7c0.1,0.2,0.3,0.3,0.6,0.3V13h2.2c3,0,5.5-2.5,5.5-5.5V3.2h17.5
	c3,0,5.5,2.5,5.5,5.5L-352,26.2L-352,26.2z"/>
<path id="icon-2" class="st1" d="M50.2,6.6h-5.5V1.1c0-0.6-0.5-1.1-1.1-1.1c-0.2,0-0.4,0.1-0.6,0.2l-6.6,4.4l-0.3,0.4
	C24.3-1.2,9.8,3.3,3.6,15.1c-5.3,10.1-2.8,22.5,6,29.7l-2.1,6.3c-0.2,0.6,0.1,1.2,0.7,1.4c0,0,0,0,0,0l0.3,0.1c0.5,0,0.9-0.3,1-0.8
	l1.9-5.6c8.2,5.6,18.9,5.6,27.1,0l1.9,5.6c0.1,0.4,0.6,0.7,1,0.8l0.3-0.1c0.6-0.2,0.9-0.8,0.7-1.4c0,0,0,0,0,0l-2.1-6.3
	c8.8-7.2,11.3-19.6,6-29.6l0.4-0.3l4.4-6.6c0.3-0.5,0.2-1.2-0.3-1.5C50.6,6.6,50.4,6.6,50.2,6.6z M42.6,3.1v4.1l-5.1,5.1l0.7-6.2
	L42.6,3.1z M34.9,14.8l-3,3c-1.9-1.6-4.4-2.5-6.9-2.5c-6.1,0-11,4.9-11,11c0,6.1,4.9,11,11,11c6,0,11-4.9,11-11c0-2.5-0.9-5-2.5-6.9
	l3-3l0.2,0c5.5,6.5,4.7,16.2-1.7,21.7s-16.2,4.7-21.7-1.7S8.5,20.1,15,14.6c5.7-4.9,14.2-4.9,20,0L34.9,14.8z M27.2,26.3
	c0,1.2-1,2.2-2.2,2.2c-1.2,0-2.2-1-2.2-2.2c0-1.2,1-2.2,2.2-2.2c0,0,0,0,0,0l0.5,0.1l-1.3,1.3c-0.5,0.4-0.5,1.1-0.1,1.6
	c0.4,0.5,1.1,0.5,1.6,0.1c0,0,0.1-0.1,0.1-0.1l1.3-1.3L27.2,26.3z M27.2,22.5c-2.1-1.3-4.8-0.6-6.1,1.5s-0.6,4.8,1.5,6.1
	s4.8,0.6,6.1-1.5c0.8-1.4,0.8-3.1,0-4.5l3.1-3.1c1.2,1.5,1.9,3.4,1.9,5.3c0.1,4.9-3.9,8.9-8.8,9s-8.9-3.9-9-8.8
	c-0.1-4.9,3.9-8.9,8.8-9c2,0,4,0.6,5.5,1.9L27.2,22.5z M25,48.2c-12.1,0-21.9-9.8-22-21.9s9.8-21.9,21.9-22c3.8,0,7.6,1,10.9,2.9
	l-0.5,4.8c-7.9-5.7-18.9-3.9-24.6,4s-3.9,18.9,4,24.6s18.9,3.9,24.6-4c4.4-6.1,4.4-14.4,0-20.6l4.8-0.5c6,10.5,2.3,23.8-8.2,29.8
	C32.6,47.2,28.8,48.2,25,48.2z M45.2,13.2L39,13.9l5.1-5.1h4.1L45.2,13.2z"/>
<path id="icon-3" class="st0" d="M449.9,23.8h-22.7c-0.6,0-1.1-0.5-1.1-1.1c0,0,0,0,0,0V1.1c0-0.6,0.5-1.1,1.1-1.1c0,0,0,0,0,0
	C442.1,0,451,8.5,451,22.8C451,23.4,450.5,23.8,449.9,23.8C449.9,23.8,449.9,23.8,449.9,23.8z M428.3,21.7h20.5
	C448.4,9.6,441,2.5,428.3,2.1V21.7z M420.8,52C407.5,52,397,41.7,397,28.5c0-14.5,10-24.2,24.9-24.2c0.6,0,1.1,0.5,1.1,1.1
	c0,0,0,0,0,0v16.4c0,0.3-0.1,0.6-0.3,0.8c-0.2,0.2-0.5,0.3-0.8,0.3c0,0-0.2,0-0.3,0c-2.7,0-4.9,2.1-4.9,4.8c0,2.7,2.1,4.9,4.8,4.9
	c2.7,0,4.9-2.1,4.9-4.8c0,0,0,0,0,0c0-0.1,0-0.3,0-0.4c0-0.3,0-0.6,0.2-0.9c0.2-0.2,0.5-0.4,0.8-0.4h16.2c0.6,0,1.1,0.5,1.1,1.1
	c0,0,0,0,0,0C444.7,42,435.1,52,420.8,52z M420.8,6.5c-13,0.5-21.7,9.2-21.7,22c0,12.2,9.3,21.3,21.7,21.3
	c12.8,0,21.2-8.5,21.7-21.7h-13.9c-0.2,3.9-3.5,6.8-7.4,6.6c-3.9-0.2-6.8-3.5-6.6-7.4c0.2-3.4,2.9-6.2,6.3-6.6L420.8,6.5L420.8,6.5z
	"/>
</svg>
