<?xml version="1.0" encoding="utf-8"?>
<!-- Generator: Adobe Illustrator 22.0.1, SVG Export Plug-In . SVG Version: 6.00 Build 0)  -->
<svg version="1.1" id="Layer_1" xmlns="http://www.w3.org/2000/svg" xmlns:xlink="http://www.w3.org/1999/xlink" x="0px" y="0px"
	 viewBox="0 0 55 53" style="enable-background:new 0 0 55 53;" xml:space="preserve">
<style type="text/css">
	.st0{fill:#FFFFFF;}
	.st1{fill:#50A0B2;}
</style>
<path id="icon" class="st0" d="M-753.5,2h-37.3c-4.2,0-7.7,3.4-7.7,7.7v37.2c0,4.2,3.4,7.7,7.7,7.7h37.3c4.2,0,7.7-3.4,7.7-7.7V9.7
	C-745.8,5.4-749.2,2-753.5,2z M-790.7,4.2h17.5v4.4c0,1.8-1.5,3.3-3.3,3.3h-1.5c-0.8-0.7-1.8-1.1-2.9-1.1c-2.4,0-4.4,2-4.4,4.4
	c0,2.4,2,4.4,4.4,4.4c1.1,0,2.1-0.4,2.9-1.1h1.5c1.8,0,3.3,1.5,3.3,3.3v5.5h-5.5c-3,0-5.5,2.5-5.5,5.5v2.2h0.1
	c0,0.2,0.2,0.4,0.3,0.6c0.5,0.4,0.7,1,0.7,1.6c0,1.2-1,2.2-2.2,2.2c-1.2,0-2.2-1-2.2-2.2c0-0.6,0.3-1.2,0.7-1.6
	c0.2-0.1,0.3-0.3,0.3-0.6h0.1v-2.2c0-3-2.5-5.5-5.5-5.5h-4.4V9.7C-796.2,6.6-793.7,4.2-790.7,4.2L-790.7,4.2z M-796.2,46.9V29.4h4.4
	c1.8,0,3.3,1.5,3.3,3.3v1.5c-0.7,0.8-1.1,1.8-1.1,2.9c0,2.4,2,4.4,4.4,4.4c2.4,0,4.4-2,4.4-4.4c0-1.1-0.4-2.1-1.1-2.9v-1.5
	c0-1.8,1.5-3.3,3.3-3.3h5.5v5.5c0,3,2.5,5.5,5.5,5.5h2.2v-0.1c0.2,0,0.4-0.2,0.6-0.3c0.4-0.5,1-0.7,1.6-0.7c1.2,0,2.2,1,2.2,2.2
	c0,1.2-1,2.2-2.2,2.2c-0.6,0-1.2-0.3-1.6-0.7c-0.1-0.2-0.3-0.3-0.6-0.3v0h-2.2c-3,0-5.5,2.5-5.5,5.5v4.4h-17.5
	C-793.7,52.4-796.2,49.9-796.2,46.9z M-753.5,52.4H-771V48c0-1.8,1.5-3.3,3.3-3.3h1.5c0.8,0.7,1.8,1.1,2.9,1.1c2.4,0,4.4-2,4.4-4.4
	c0-2.4-2-4.4-4.4-4.4c-1.1,0-2.1,0.4-2.9,1.1h-1.5c-1.8,0-3.3-1.5-3.3-3.3c0,0,0,0,0,0v-5.5h5.5c3,0,5.5-2.5,5.5-5.5v-2.2h-0.1
	c0-0.2-0.2-0.4-0.3-0.6c-0.5-0.4-0.7-1-0.7-1.6c0-1.2,1-2.2,2.2-2.2c1.2,0,2.2,1,2.2,2.2c0,0.6-0.3,1.2-0.7,1.6
	c-0.2,0.1-0.3,0.3-0.3,0.6h-0.1v2.2c0,3,2.5,5.5,5.5,5.5h4.4v17.5C-748,49.9-750.4,52.4-753.5,52.4L-753.5,52.4z M-748,27.2h-4.4
	c-1.8,0-3.3-1.5-3.3-3.3v-1.5c0.7-0.8,1.1-1.8,1.1-2.9c0-2.4-2-4.4-4.4-4.4c-2.4,0-4.4,2-4.4,4.4c0,1.1,0.4,2.1,1.1,2.9v1.5
	c0,1.8-1.5,3.3-3.3,3.3h-5.5v-5.5c0-3-2.5-5.5-5.5-5.5h-2.2v0.1c-0.2,0-0.4,0.2-0.6,0.3c-0.4,0.5-1,0.7-1.6,0.7
	c-1.2,0-2.2-1-2.2-2.2c0-1.2,1-2.2,2.2-2.2c0.6,0,1.2,0.3,1.6,0.7c0.1,0.2,0.3,0.3,0.6,0.3V14h2.2c3,0,5.5-2.5,5.5-5.5V4.2h17.5
	c3,0,5.5,2.5,5.5,5.5L-748,27.2L-748,27.2z"/>
<path id="icon-2" class="st0" d="M-345.8,7.6h-5.5V2.1c0-0.4-0.2-0.8-0.6-1c-0.4-0.2-0.8-0.2-1.1,0.1l-6.6,4.4l-0.3,0.4
	c-3.4-1.8-7.2-2.7-11.1-2.8c-13.3,0-24.1,10.8-24.1,24.1c0,7.2,3.2,14,8.7,18.5l-2.1,6.3c-0.2,0.6,0.1,1.2,0.7,1.4c0,0,0,0,0,0
	l0.3,0.1c0.5,0,0.9-0.3,1-0.8l1.9-5.6c4,2.7,8.7,4.2,13.5,4.2c4.8,0,9.5-1.4,13.5-4.2l1.9,5.6c0.1,0.4,0.6,0.8,1,0.8l0.3-0.1
	c0.6-0.2,0.9-0.8,0.7-1.4l-2.1-6.3c5.5-4.6,8.7-11.4,8.7-18.5c0-3.9-1-7.7-2.8-11.1l0.4-0.3l4.4-6.6c0.2-0.3,0.2-0.8,0.1-1.1
	C-345,7.8-345.4,7.6-345.8,7.6z M-353.4,4.1v4.1l-5.1,5.1l0.7-6.2L-353.4,4.1z M-361.1,15.8l-3,3c-1.9-1.6-4.4-2.5-6.9-2.5
	c-6,0-11,4.9-11,11c0,6,4.9,10.9,11,11c6,0,11-4.9,11-11c0-2.5-0.9-5-2.5-6.9l3-3l0.2,0c2.4,2.8,3.7,6.3,3.7,9.9
	c0,8.5-6.9,15.3-15.3,15.3c-8.5,0-15.3-6.9-15.3-15.3c0-8.5,6.9-15.3,15.3-15.3c3.6,0,7.2,1.3,9.9,3.7L-361.1,15.8z M-368.8,27.3
	c0,1.2-1,2.2-2.2,2.2c-1.2,0-2.2-1-2.2-2.2c0-1.2,1-2.2,2.2-2.2l0.5,0.1l-1.3,1.3c-0.4,0.4-0.4,1.1,0,1.5c0,0,0,0,0,0
	c0.2,0.2,0.5,0.3,0.8,0.3c0.3,0,0.6-0.1,0.8-0.3l1.3-1.3L-368.8,27.3z M-368.8,23.5c-0.7-0.4-1.4-0.6-2.2-0.6c-2.4,0-4.4,2-4.4,4.4
	c0,2.4,2,4.4,4.4,4.4c2.4,0,4.4-2,4.4-4.4c0-0.8-0.2-1.5-0.6-2.2l3.1-3.1c1.2,1.5,1.9,3.4,1.9,5.3c0,4.8-3.9,8.8-8.8,8.8
	c-4.8,0-8.8-3.9-8.8-8.8c0-4.8,3.9-8.8,8.8-8.8c1.9,0,3.8,0.7,5.3,1.9L-368.8,23.5z M-371,49.2c-12.1,0-21.9-9.8-21.9-21.9
	c0-12.1,9.8-21.9,21.9-21.9c3.8,0,7.5,1,10.8,2.9l-0.5,4.8c-3-2.2-6.5-3.3-10.2-3.3c-9.7,0-17.5,7.9-17.5,17.5
	c0,9.7,7.9,17.5,17.5,17.5c9.7,0,17.5-7.9,17.5-17.5c0-3.7-1.2-7.2-3.3-10.2l4.8-0.5c1.9,3.3,2.8,7,2.9,10.8
	C-349.1,39.4-358.9,49.2-371,49.2L-371,49.2z M-350.8,14.2l-6.3,0.7l5.1-5.1h4.1L-350.8,14.2z"/>
<path id="icon-3" class="st1" d="M53.9,24.8H31.2c-0.6,0-1.1-0.5-1.1-1.1c0,0,0,0,0,0V2.1c0-0.6,0.5-1.1,1.1-1.1c0,0,0,0,0,0
	C46.1,1,55,9.5,55,23.8C55,24.4,54.5,24.8,53.9,24.8C53.9,24.8,53.9,24.8,53.9,24.8z M32.3,22.7h20.5C52.4,10.6,45,3.5,32.3,3.1
	V22.7z M24.8,53C11.5,53,1,42.7,1,29.5C1,15.1,11,5.4,25.9,5.4c0.6,0,1.1,0.5,1.1,1.1c0,0,0,0,0,0v16.4c0,0.3-0.1,0.6-0.3,0.8
	c-0.2,0.2-0.5,0.3-0.8,0.3c0,0-0.2,0-0.3,0c-2.7,0-4.9,2.1-4.9,4.8s2.1,4.9,4.8,4.9c2.7,0,4.9-2.1,4.9-4.8c0,0,0,0,0,0
	c0-0.1,0-0.3,0-0.4c0-0.3,0-0.6,0.2-0.9c0.2-0.2,0.5-0.4,0.8-0.4h16.2c0.6,0,1.1,0.5,1.1,1.1C48.7,43,39.1,53,24.8,53z M24.8,7.5
	c-13,0.5-21.7,9.2-21.7,22c0,12.2,9.3,21.3,21.7,21.3c12.8,0,21.2-8.5,21.7-21.7H32.6c-0.2,3.9-3.5,6.8-7.4,6.6s-6.8-3.5-6.6-7.4
	c0.2-3.4,2.9-6.2,6.3-6.6V7.5z"/>
</svg>
