<?xml version="1.0" encoding="utf-8"?>
<!-- Generator: Adobe Illustrator 22.0.1, SVG Export Plug-In . SVG Version: 6.00 Build 0)  -->
<svg version="1.1" id="Layer_1" xmlns="http://www.w3.org/2000/svg" xmlns:xlink="http://www.w3.org/1999/xlink" x="0px" y="0px"
	 viewBox="0 0 51 48" style="enable-background:new 0 0 51 48;" xml:space="preserve">
<style type="text/css">
	.st0{fill:#50A0B2;}
</style>
<path id="icon" class="st0" d="M45.3,26v-9.9c0-0.4-0.2-0.8-0.5-0.9L35.9,10V6.5c0-0.4-0.2-0.7-0.5-0.9l-8.8-5.2l0,0l-0.5-0.2l0,0
	H26l-0.5,0.1h-0.1l-8.8,5.2c-0.3,0.2-0.5,0.6-0.5,0.9V10l-8.8,5c-0.3,0.2-0.5,0.6-0.6,0.9v9.9l-4.4,2.6C2,28.6,1.8,29,1.8,29.3v10.4
	c0,0.4,0.2,0.7,0.5,0.9l8.8,5.2l0.6,0.2l0.6-0.2l4.6-2.7l8.6,4.9l0.5,0.1l0.5-0.1l8.6-4.9l4.6,2.7l0.6,0.2l0.6-0.2l8.8-5.2
	c0.3-0.2,0.5-0.6,0.5-0.9V29.5c0-0.4-0.2-0.7-0.5-0.9L45.3,26z M47.9,37.6l-6.5-4.1v-7.3l6.5,3.9V37.6z M26,12.4l6.9,4.3L26,20.8
	l-6.9-4.1L26,12.4z M33.7,14.6l-6.6-4.1V3.2l6.6,3.9V14.6L33.7,14.6z M24.9,3.2v7.3l-6.6,4.1V7.1L24.9,3.2z M10.7,26.2v7.3l-6.6,4.1
	v-7.5L10.7,26.2z M19.4,30.1v7.5l-6.6-4.1v-7.3L19.4,30.1z M11.8,43.8l-6.9-4.1l6.9-4.3l6.9,4.3L11.8,43.8z M26,46l-7-4l2-1.2
	c0.3-0.2,0.5-0.6,0.5-0.9V29.5c0-0.4-0.2-0.7-0.5-0.9l-8.8-5.2l0,0l-0.5-0.1l0,0h-0.1l-0.4,0.1h-0.1l-2.2,1.3v-7.9l7.1-4.1V17
	c0,0.4,0.2,0.7,0.5,0.9l8.8,5.2l0.6,0.2l0.6-0.2l8.8-5.2c0.3-0.2,0.5-0.6,0.5-0.9v-4.3l7.2,4.1v8l-2.2-1.3l0,0l-0.5-0.1l0,0h-0.1
	l-0.4,0.1h-0.1l-8.8,5.2c-0.3,0.2-0.5,0.6-0.5,0.9V40c0,0.4,0.2,0.7,0.5,0.9l2,1.2L26,46z M39.2,26.2v7.3l-6.6,4.1v-7.5L39.2,26.2z
	 M40.3,43.8l-6.9-4.1l6.9-4.3l6.9,4.3L40.3,43.8z"/>
</svg>
