<?xml version="1.0" encoding="utf-8"?>
<!-- Generator: Adobe Illustrator 22.0.1, SVG Export Plug-In . SVG Version: 6.00 Build 0)  -->
<svg version="1.1" id="Layer_1" xmlns="http://www.w3.org/2000/svg" xmlns:xlink="http://www.w3.org/1999/xlink" x="0px" y="0px"
	 viewBox="0 0 51 48" style="enable-background:new 0 0 51 48;" xml:space="preserve">
<style type="text/css">
	.st0{fill:#50A0B2;}
</style>
<path id="business_bag" class="st0" d="M44.6,48H6.4C2.8,48,0,45.1,0,41.5V15.7c0-3.5,2.8-6.4,6.4-6.5h38.2c3.5,0,6.4,2.9,6.4,6.5
	v25.8C51,45.1,48.2,48,44.6,48z M6.4,11.1c-2.5,0-4.6,2.1-4.6,4.6v25.8c0,2.5,2,4.6,4.6,4.6h38.2c2.5,0,4.6-2.1,4.6-4.6V15.7
	c0-2.5-2-4.6-4.6-4.6H6.4z M37.3,11.1H12.8V6.5c0-3.5,2.8-6.4,6.4-6.5H31c3.5,0,6.4,2.9,6.4,6.5v4.6H37.3z M14.6,9.2h20.9V6.5
	c0-2.5-2-4.6-4.6-4.6H19.1c-2.5,0-4.6,2.1-4.6,4.6C14.6,6.5,14.6,9.2,14.6,9.2z M42.8,19.4H8.2c-0.5,0-0.9-0.4-0.9-1
	c0-0.5,0.4-0.9,0.9-0.9h34.6c0.5,0,0.9,0.4,0.9,1C43.7,19,43.3,19.4,42.8,19.4z M42.8,29.5H8.2c-0.5,0-0.9-0.4-0.9-1
	c0-0.5,0.4-0.9,0.9-0.9h34.6c0.5,0,0.9,0.4,0.9,1C43.7,29.1,43.3,29.5,42.8,29.5z M42.8,39.7H8.2c-0.5,0-0.9-0.4-0.9-1
	c0-0.5,0.4-0.9,0.9-0.9h34.6c0.5,0,0.9,0.4,0.9,1C43.7,39.3,43.3,39.7,42.8,39.7z"/>
</svg>
