<?xml version="1.0" encoding="utf-8"?>
<!-- Generator: Adobe Illustrator 22.0.1, SVG Export Plug-In . SVG Version: 6.00 Build 0)  -->
<svg version="1.1" id="Layer_1" xmlns="http://www.w3.org/2000/svg" xmlns:xlink="http://www.w3.org/1999/xlink" x="0px" y="0px"
	 viewBox="0 0 51 48" style="enable-background:new 0 0 51 48;" xml:space="preserve">
<style type="text/css">
	.st0{fill:#A49AC3;}
	.st1{fill:#5C5D5D;}
	.st2{fill:#FFFFFF;}
	.st3{fill:#50A0B2;}
</style>
<path id="icon" class="st0" d="M-340.5-234.2v-9.5c0-0.4-0.2-0.8-0.5-0.9l-8.4-4.9v-3.5c0-0.4-0.2-0.7-0.5-0.9l-8.4-5l0,0l-0.5-0.2
	l0,0h-0.1l-0.4,0.1h-0.1l-8.4,5c-0.3,0.2-0.5,0.6-0.5,0.9v3.5l-8.4,4.8c-0.3,0.2-0.5,0.6-0.6,0.9v9.5l-4.2,2.5
	c-0.3,0.2-0.5,0.6-0.5,0.9v10c0,0.4,0.2,0.7,0.5,0.9l8.4,5l0.6,0.2l0.6-0.2l4.4-2.6l8.3,4.7l0.5,0.1l0.5-0.1l8.2-4.7l4.4,2.6
	l0.6,0.2l0.6-0.2l8.4-5c0.3-0.2,0.5-0.6,0.5-0.9v-10c0-0.4-0.2-0.7-0.5-0.9L-340.5-234.2z M-338-223.1l-6.2-3.9v-7l6.2,3.7V-223.1
	L-338-223.1z M-359-247.3l6.6,4.1l-6.6,3.9l-6.6-3.9L-359-247.3z M-351.6-245.2l-6.2-3.9v-7l6.2,3.7V-245.2L-351.6-245.2z
	 M-360-256.1v7l-6.3,3.9v-7.2L-360-256.1z M-373.7-234v7l-6.3,3.9v-7.2L-373.7-234z M-365.3-230.3v7.2l-6.3-3.9v-7L-365.3-230.3z
	 M-372.6-217.2l-6.6-3.9l6.6-4.1l6.6,4.1L-372.6-217.2z M-359-215l-6.7-3.8l1.9-1.2c0.3-0.2,0.5-0.6,0.5-0.9v-10
	c0-0.4-0.2-0.7-0.5-0.9l-8.4-5l0,0l-0.5-0.2l0,0h-0.1l-0.4,0.1h-0.1l-2.1,1.2v-7.6l6.8-3.9v4.1c0,0.4,0.2,0.7,0.5,0.9l8.4,5l0.6,0.2
	l0.6-0.2l8.4-5c0.3-0.2,0.5-0.6,0.5-0.9v-4.1l6.9,3.9v7.7l-2.1-1.2l0,0l-0.5-0.2l0,0h-0.1l-0.4,0.1h-0.1l-8.4,5
	c-0.3,0.2-0.5,0.6-0.5,0.9v10c0,0.4,0.2,0.7,0.5,0.9l1.9,1.2L-359-215z M-346.3-234v7l-6.3,3.9v-7.2L-346.3-234z M-345.3-217.2
	l-6.6-3.9l6.6-4.1l6.6,4.1L-345.3-217.2z"/>
<path id="Stats_2" class="st1" d="M46.6-259.2c-0.5,0-1,0.4-1,1l0,0v4.7l-7.1,3.6c-1-1.3-2.6-2.1-4.2-2.1c-3,0-5.4,2.4-5.4,5.4
	c0,1.7,0.9,3.5,2.4,4.4l-2.3,5.3c-0.4-0.1-0.9-0.2-1.2-0.2c-3,0-5.4,2.4-5.4,5.4c0,0.4,0.1,0.9,0.2,1.2l-5.3,2.3
	c-1-1.4-2.7-2.4-4.4-2.4c-3,0-5.4,2.4-5.4,5.4c0,1.7,0.9,3.4,2.2,4.3L7-215.1H2.5c-0.5,0-1,0.4-1,1l0,0c0,0.5,0.4,1,1,1l0,0H44
	c1.9,0,3.6-1.5,3.6-3.6v-41.5C47.6-258.8,47.1-259.2,46.6-259.2z M34.4-250.2c1.2,0,2.5,0.7,3.1,1.8l0,0l0,0
	c0.3,0.5,0.4,1.1,0.4,1.5c0,1.9-1.5,3.5-3.5,3.5c-1.9,0-3.5-1.5-3.5-3.5C31-248.5,32.5-250.2,34.4-250.2L34.4-250.2z M27.8-235.3
	c1.9,0,3.5,1.5,3.5,3.5s-1.5,3.5-3.5,3.5s-3.5-1.5-3.5-3.5C24.3-233.7,25.9-235.2,27.8-235.3L27.8-235.3z M12.9-228.7
	c1.9,0,3.5,1.5,3.5,3.5s-1.5,3.5-3.5,3.5c-0.5,0-1.1-0.1-1.4-0.4l0,0l0,0c-1.2-0.6-2-1.8-2-3.2C9.5-227,11-228.7,12.9-228.7
	L12.9-228.7z M44-215H9.2l2.4-5c0.5,0.1,1,0.2,1.4,0.2c3,0,5.4-2.4,5.4-5.4c0-0.4-0.1-0.9-0.2-1.2l5.3-2.3c1,1.4,2.7,2.3,4.4,2.3
	c3,0,5.4-2.4,5.4-5.4c0-1.7-0.9-3.5-2.4-4.4l2.3-5.3c0.4,0.1,0.9,0.2,1.2,0.2c3,0,5.4-2.4,5.4-5.4c0-0.6-0.1-1.1-0.3-1.6l6.1-3.2
	v34.8C45.7-215.7,45-215,44-215L44-215L44-215z"/>
<path id="business_bag" class="st2" d="M428.3-213.1h-36.7c-3.4,0-6.1-2.8-6.1-6.2v-24.8c0-3.4,2.7-6.1,6.1-6.2h36.7
	c3.4,0,6.1,2.8,6.1,6.2v24.8C434.5-215.9,431.8-213.1,428.3-213.1z M391.6-248.5c-2.4,0-4.4,2-4.4,4.4v24.8c0,2.4,1.9,4.4,4.4,4.4
	h36.7c2.4,0,4.4-2,4.4-4.4v-24.8c0-2.4-1.9-4.4-4.4-4.4H391.6z M421.3-248.5h-23.6v-4.4c0-3.4,2.7-6.1,6.1-6.2h11.4
	c3.4,0,6.1,2.8,6.1,6.2L421.3-248.5L421.3-248.5z M399.5-250.4h20.1v-2.7c0-2.4-1.9-4.4-4.4-4.4h-11.3c-2.4,0-4.4,2-4.4,4.4
	L399.5-250.4L399.5-250.4z M426.6-240.6h-33.2c-0.5,0-0.9-0.4-0.9-0.9l0,0c0-0.5,0.4-0.9,0.9-0.9l0,0h33.2c0.5,0,0.9,0.4,0.9,0.9
	l0,0C427.5-241,427.1-240.6,426.6-240.6L426.6-240.6z M426.6-230.9h-33.2c-0.5,0-0.9-0.4-0.9-0.9l0,0c0-0.5,0.4-0.9,0.9-0.9l0,0
	h33.2c0.5,0,0.9,0.4,0.9,0.9l0,0C427.5-231.3,427.1-230.9,426.6-230.9L426.6-230.9z M426.6-221.1h-33.2c-0.5,0-0.9-0.4-0.9-0.9l0,0
	c0-0.5,0.4-0.9,0.9-0.9l0,0h33.2c0.5,0,0.9,0.4,0.9,0.9l0,0C427.5-221.5,427.1-221.1,426.6-221.1L426.6-221.1z"/>
<path id="target_up" class="st2" d="M-359.9,48c-13,0-23.5-10.6-23.5-23.5S-372.9,1-359.9,1c13,0,23.5,10.6,23.5,23.5
	S-347,48-359.9,48z M-359.9,2.8c-12,0-21.7,9.7-21.7,21.7s9.7,21.7,21.7,21.7s21.7-9.7,21.7-21.7S-347.9,2.8-359.9,2.8z
	 M-380.2,34.2l-1.2-1.3l7.7-6.7l7.6,4.2l1.6-10l8.5-4.7l0.9,1.5l-7.8,4.3l-1.9,11.7l-8.7-4.8L-380.2,34.2z M-353.6,26.5l-1.7-0.5
	l3.4-11.7l-10.8-2.5l0.4-1.7l12.7,2.9L-353.6,26.5z"/>
<path id="globe" class="st3" d="M25.5,0L25.5,0C12.2,0,1.4,10.8,1.4,24s10.8,24,24,24l0,0l0,0c13.2,0,24-10.8,24-24S38.7,0,25.5,0z
	 M26.5,14.4c2.5-0.1,5-0.4,7.4-1c0.8,3.1,1.2,6.3,1.2,9.6h-8.6V14.4z M26.5,12.5V2.1c2.6,0.7,5.2,4.1,6.9,9.5
	C31.1,12.1,28.8,12.4,26.5,12.5z M24.5,2v10.5c-2.3-0.1-4.7-0.4-6.9-1C19.3,6.1,21.9,2.7,24.5,2z M24.5,14.4V23h-8.7
	c0-3.3,0.5-6.5,1.2-9.7C19.5,13.9,22,14.3,24.5,14.4L24.5,14.4z M13.9,23H3.4c0.2-4.8,1.9-9.3,5-13.1c2.1,1.2,4.4,2.1,6.8,2.9
	C14.4,16.2,14,19.6,13.9,23z M13.9,25c0.1,3.5,0.5,6.8,1.3,10.2c-2.4,0.7-4.6,1.6-6.8,2.9c-3-3.7-4.8-8.3-5-13.1H13.9L13.9,25z
	 M15.8,25h8.7v8.6c-2.5,0.1-5,0.4-7.5,1C16.3,31.5,15.9,28.2,15.8,25z M24.5,35.5v10.4c-2.6-0.7-5.3-4.1-6.9-9.5
	C19.8,35.9,22.2,35.6,24.5,35.5z M26.5,45.9V35.5c2.3,0.1,4.6,0.4,6.9,1C31.6,41.8,29.1,45.2,26.5,45.9z M26.5,33.6V25h8.6
	c0,3.3-0.5,6.5-1.2,9.7C31.5,34,29,33.7,26.5,33.6z M37,25h10.6c-0.2,4.8-1.9,9.3-5,13.1c-2.2-1.2-4.5-2.2-6.8-2.9
	C36.5,31.8,37,28.4,37,25z M37,23c-0.1-3.5-0.5-6.8-1.3-10.2c2.4-0.7,4.7-1.7,6.8-2.9c3.1,3.6,4.8,8.3,5,13.1H37z M41.2,8.5
	c-1.9,1.1-3.9,1.8-6,2.5c-0.9-3.2-2.4-6-4.6-8.4C34.6,3.5,38.4,5.6,41.2,8.5z M20.3,2.6C18.2,5,16.7,8,15.8,11c-2.1-0.7-4-1.4-6-2.5
	C12.6,5.6,16.3,3.6,20.3,2.6z M9.8,39.5c1.9-1.1,3.9-1.8,6-2.5c0.9,3.2,2.4,6,4.5,8.4C16.3,44.4,12.6,42.4,9.8,39.5z M30.7,45.5
	c2.1-2.5,3.7-5.4,4.6-8.5c2.1,0.7,4.1,1.4,6,2.5C38.4,42.4,34.6,44.5,30.7,45.5L30.7,45.5z"/>
<path id="icon-2" class="st0" d="M429.8,3.8c-4-4-12.6-1.3-20.2,6.2c-1.9,2-3.7,4.1-5.4,6.2h-11c-2.6,0.2-4.8,1.7-5.9,4l-1.8,5.3
	c-0.2,0.5,0.1,1.1,0.6,1.2c0.1,0,0.2,0.1,0.3,0.1h4.8c1.6,0,3.5,0.6,3.8,1.9c-0.9,1.2-1.6,2.5-2.4,3.7c-0.3,0.4-0.2,0.9,0.1,1.2
	l0.3,0.3c-3.6,1.2-6.1,4.2-6.7,8l-0.8,4.8c-0.1,0.5,0.3,1.1,0.8,1.1c0.1,0,0.1,0,0.2,0h0.2l4.8-0.8c3.7-0.6,6.8-3.2,8-6.7l0.3,0.3
	c0.3,0.3,0.8,0.4,1.2,0.1c1.2-0.8,2.5-1.6,3.7-2.4c1.3,0.4,1.9,2.1,1.9,3.8V47c0,0.6,0.4,1,1,1l0.3-0.1l5.2-1.8
	c2.3-1.1,3.9-3.3,4-5.9V29.4c2.2-1.6,4.3-3.5,6.2-5.4C431.1,16.3,433.8,7.9,429.8,3.8z M396.3,27c-1.2-1.3-3.1-2.1-5-2h-3.5l1.3-3.9
	c0.8-1.5,2.3-2.6,4-2.8h9.5c-1.6,2.1-3.4,4.5-5.1,6.9L396.3,27z M391.2,45.3l-3.5,0.6l0.6-3.5c0.6-3.4,3.1-6,6.4-6.7L398,39
	C397.1,42.1,394.5,44.7,391.2,45.3z M415.3,40.3c-0.2,1.7-1.2,3.3-2.8,4l-3.9,1.3v-3.5c0.1-1.8-0.7-3.6-2-5l1.8-1.3
	c2.4-1.7,4.8-3.5,6.9-5.1V40.3L415.3,40.3z M415.8,27.9l-0.2,0.1l-8.5,6.4c-2.1,1.4-4.3,3-6.5,4.3l-0.7-0.7l-0.2-0.4l-3.8-3.8
	l-0.4-0.2l-0.7-0.7c1.4-2.2,2.9-4.4,4.3-6.5l6.4-8.5l0.1-0.2c1.6-2.2,3.5-4.2,5.3-6.2c6.6-6.6,14.3-9.4,17.5-6.2
	c3.2,3.2,0.4,10.8-6.2,17.5C420.2,24.5,418,26.3,415.8,27.9L415.8,27.9z M414.4,12.2c-1.9,1.9-1.9,5,0,6.9s5,1.9,6.9,0
	c1.9-1.9,1.9-5,0-6.9l0,0C419.4,10.3,416.3,10.3,414.4,12.2L414.4,12.2z M420,17.8c-1.2,1.2-3.1,1.2-4.2,0c-0.6-0.6-0.9-1.3-0.9-2.1
	c0-1.6,1.3-3,3-3c1.6,0,3,1.3,3,3C420.8,16.4,420.5,17.2,420,17.8L420,17.8z"/>
</svg>
