<?xml version="1.0" encoding="utf-8"?>
<!-- Generator: Adobe Illustrator 22.0.1, SVG Export Plug-In . SVG Version: 6.00 Build 0)  -->
<svg version="1.1" id="Layer_1" xmlns="http://www.w3.org/2000/svg" xmlns:xlink="http://www.w3.org/1999/xlink" x="0px" y="0px"
	 viewBox="0 0 51 48" style="enable-background:new 0 0 51 48;" xml:space="preserve">
<style type="text/css">
	.st0{fill:#A49AC3;}
	.st1{fill:#5C5D5D;}
	.st2{fill:#FFFFFF;}
	.st3{fill:#50A0B2;}
</style>
<path id="icon" class="st0" d="M-738.8-240v-9.7c0-0.4-0.2-0.8-0.5-0.9l-8.6-5v-3.5c0-0.4-0.2-0.7-0.5-0.9l-8.6-5.1l0,0l-0.5-0.2
	l0,0h-0.1l-0.4,0.1h-0.1l-8.6,5.1c-0.3,0.2-0.5,0.6-0.5,0.9v3.5l-8.6,4.9c-0.3,0.2-0.5,0.6-0.6,0.9v9.7l-4.3,2.5
	c-0.3,0.2-0.5,0.6-0.5,0.9v10.2c0,0.4,0.2,0.7,0.5,0.9l8.6,5.1l0.6,0.2l0.6-0.2l4.5-2.6l8.4,4.8l0.5,0.1l0.5-0.1l8.3-4.8l4.5,2.6
	l0.6,0.2l0.6-0.2l8.6-5.1c0.3-0.2,0.5-0.6,0.5-0.9v-10.2c0-0.4-0.2-0.7-0.5-0.9L-738.8-240z M-736.2-228.6l-6.4-4v-7.2l6.4,3.8
	V-228.6L-736.2-228.6z M-757.7-253.3l6.8,4.2l-6.8,4l-6.8-4L-757.7-253.3z M-750.1-251.2l-6.4-4v-7.2l6.4,3.8V-251.2L-750.1-251.2z
	 M-758.8-262.3v7.2l-6.5,4v-7.3L-758.8-262.3z M-772.7-239.8v7.2l-6.5,4v-7.3L-772.7-239.8z M-764.1-236v7.3l-6.5-4v-7.2L-764.1-236
	z M-771.6-222.6l-6.8-4l6.8-4.2l6.8,4.2L-771.6-222.6z M-757.7-220.4l-6.9-3.9l2-1.2c0.3-0.2,0.5-0.6,0.5-0.9v-10.2
	c0-0.4-0.2-0.7-0.5-0.9l-8.6-5.1l0,0l-0.5-0.2l0,0h-0.1l-0.4,0.1h-0.1l-2.2,1.3v-7.7l7-4v4.2c0,0.4,0.2,0.7,0.5,0.9l8.6,5.1l0.6,0.2
	l0.6-0.2l8.6-5.1c0.3-0.2,0.5-0.6,0.5-0.9v-4.2l7.1,4v7.8l-2.2-1.3l0,0l-0.5-0.2l0,0h-0.1l-0.4,0.1h-0.1l-8.6,5.1
	c-0.3,0.2-0.5,0.6-0.5,0.9v10.2c0,0.4,0.2,0.7,0.5,0.9l2,1.2L-757.7-220.4z M-744.8-239.8v7.2l-6.5,4v-7.3L-744.8-239.8z
	 M-743.7-222.6l-6.8-4l6.8-4.2l6.8,4.2L-743.7-222.6z"/>
<path id="Stats_2" class="st1" d="M-343.8-265.5c-0.5,0-1,0.4-1,1l0,0v4.8l-7.2,3.7c-1-1.4-2.6-2.2-4.3-2.2c-3,0-5.5,2.4-5.5,5.5
	c0,1.8,0.9,3.5,2.4,4.5l-2.4,5.4c-0.4-0.1-0.9-0.2-1.3-0.2c-3,0-5.5,2.4-5.5,5.5c0,0.4,0.1,0.9,0.2,1.3l-5.4,2.4
	c-1-1.5-2.7-2.4-4.5-2.4c-3,0-5.5,2.4-5.5,5.5c0,1.8,0.9,3.4,2.3,4.4l-2.8,5.9h-4.7c-0.5,0-1,0.4-1,1l0,0c0,0.5,0.4,1,1,1l0,0h42.4
	c2,0,3.6-1.6,3.6-3.6v-42.3C-342.8-265.1-343.3-265.5-343.8-265.5z M-356.2-256.3c1.3,0,2.5,0.7,3.1,1.9l0,0l0,0
	c0.3,0.5,0.4,1.1,0.4,1.6c0,2-1.6,3.5-3.5,3.5c-2,0-3.5-1.6-3.5-3.5C-359.8-254.6-358.2-256.3-356.2-256.3L-356.2-256.3z
	 M-363-241.1c2,0,3.5,1.6,3.5,3.5s-1.6,3.5-3.5,3.5c-2,0-3.5-1.6-3.5-3.5C-366.5-239.4-365-241-363-241.1L-363-241.1z M-378.2-234.3
	c2,0,3.5,1.6,3.5,3.5s-1.6,3.5-3.5,3.5c-0.5,0-1.1-0.1-1.5-0.4l0,0l0,0c-1.3-0.6-2.1-1.9-2.1-3.2
	C-381.7-232.7-380.1-234.3-378.2-234.3L-378.2-234.3z M-346.5-220.4H-382l2.4-5.1c0.5,0.1,1,0.2,1.5,0.2c3,0,5.5-2.4,5.5-5.5
	c0-0.4-0.1-0.9-0.2-1.3l5.4-2.4c1,1.5,2.7,2.4,4.5,2.4c3,0,5.5-2.4,5.5-5.5c0-1.8-0.9-3.5-2.4-4.5l2.4-5.4c0.4,0.1,0.9,0.2,1.3,0.2
	c3,0,5.5-2.4,5.5-5.5c0-0.6-0.1-1.1-0.3-1.7l6.4-3.3v35.6C-344.8-221.1-345.5-220.4-346.5-220.4L-346.5-220.4L-346.5-220.4z"/>
<path id="business_bag" class="st2" d="M45.7-218.4H8.3c-3.4,0-6.3-2.8-6.3-6.4v-25.3c0-3.4,2.7-6.3,6.3-6.4h37.4
	c3.4,0,6.3,2.8,6.3,6.4v25.3C51.9-221.3,49.2-218.4,45.7-218.4z M8.3-254.6c-2.4,0-4.5,2.1-4.5,4.5v25.3c0,2.4,2,4.5,4.5,4.5h37.4
	c2.4,0,4.5-2.1,4.5-4.5v-25.3c0-2.4-2-4.5-4.5-4.5H8.3z M38.5-254.6h-24v-4.5c0-3.4,2.7-6.3,6.3-6.4h11.6c3.4,0,6.3,2.8,6.3,6.4
	L38.5-254.6L38.5-254.6z M16.3-256.5h20.5v-2.7c0-2.4-2-4.5-4.5-4.5H20.7c-2.4,0-4.5,2.1-4.5,4.5L16.3-256.5L16.3-256.5z
	 M43.9-246.5H10c-0.5,0-0.9-0.4-0.9-0.9l0,0c0-0.5,0.4-0.9,0.9-0.9l0,0h33.9c0.5,0,0.9,0.4,0.9,0.9l0,0
	C44.8-246.9,44.4-246.5,43.9-246.5L43.9-246.5z M43.9-236.6H10c-0.5,0-0.9-0.4-0.9-0.9l0,0c0-0.5,0.4-0.9,0.9-0.9l0,0h33.9
	c0.5,0,0.9,0.4,0.9,0.9l0,0C44.8-237,44.4-236.6,43.9-236.6L43.9-236.6z M43.9-226.6H10c-0.5,0-0.9-0.4-0.9-0.9l0,0
	c0-0.5,0.4-0.9,0.9-0.9l0,0h33.9c0.5,0,0.9,0.4,0.9,0.9l0,0C44.8-227,44.4-226.6,43.9-226.6L43.9-226.6z"/>
<path id="target_up" class="st2" d="M-758.7,48c-13.2,0-24-10.8-24-24s10.8-24,24-24s24,10.8,24,24S-745.4,48-758.7,48z M-758.7,1.9
	c-12.2,0-22.1,9.9-22.1,22.1s9.9,22.1,22.1,22.1s22.1-9.9,22.1-22.1S-746.4,1.9-758.7,1.9z M-779.3,33.9l-1.2-1.4l7.8-6.9l7.7,4.3
	l1.7-10.2l8.7-4.8l0.9,1.6l-7.9,4.4l-2,12l-8.9-4.9L-779.3,33.9z M-752.2,26.1l-1.8-0.5l3.4-12l-11.1-2.5l0.4-1.8l12.9,2.9
	L-752.2,26.1z"/>
<path id="globe" class="st2" d="M-365.4-1L-365.4-1c-13.5,0-24.5,11-24.5,24.5s11,24.5,24.4,24.5l0,0l0,0c13.5,0,24.5-11,24.5-24.5
	S-351.8-1-365.4-1z M-364.4,13.7c2.5-0.1,5.1-0.4,7.5-1c0.8,3.2,1.2,6.6,1.3,9.9h-8.8V13.7z M-364.4,11.8V1.2
	c2.6,0.7,5.3,4.2,7.1,9.7C-359.7,11.4-362,11.7-364.4,11.8z M-366.3,1.1v10.7c-2.4-0.1-4.8-0.4-7.1-1C-371.7,5.3-369,1.8-366.3,1.1z
	 M-366.3,13.7v8.8h-8.9c0-3.3,0.5-6.7,1.3-9.9C-371.4,13.2-368.9,13.6-366.3,13.7L-366.3,13.7z M-377.2,22.5h-10.7
	c0.2-4.9,2-9.5,5.1-13.3c2.2,1.2,4.5,2.2,7,2.9C-376.7,15.6-377.1,19-377.2,22.5z M-377.2,24.5c0.1,3.5,0.5,7,1.4,10.4
	c-2.4,0.7-4.7,1.7-7,2.9c-3.1-3.7-4.9-8.4-5.1-13.3L-377.2,24.5L-377.2,24.5z M-375.3,24.5h8.9v8.8c-2.5,0.1-5.1,0.4-7.6,1
	C-374.8,31.2-375.2,27.8-375.3,24.5z M-366.3,35.3v10.6c-2.6-0.7-5.4-4.2-7.1-9.7C-371.1,35.7-368.7,35.4-366.3,35.3z M-364.4,45.8
	V35.3c2.4,0.1,4.7,0.4,7.1,1C-359.1,41.6-361.7,45.2-364.4,45.8z M-364.4,33.3v-8.8h8.8c0,3.3-0.5,6.7-1.3,9.9
	C-359.3,33.7-361.8,33.4-364.4,33.3z M-353.6,24.5h10.8c-0.2,4.9-2,9.5-5.1,13.3c-2.3-1.2-4.6-2.3-7-2.9
	C-354.1,31.4-353.6,28-353.6,24.5z M-353.6,22.5c-0.1-3.5-0.5-7-1.4-10.4c2.4-0.7,4.8-1.8,7-2.9c3.1,3.7,4.9,8.4,5.1,13.3H-353.6z
	 M-349.3,7.7c-2,1.1-4,1.9-6.2,2.5c-0.9-3.2-2.4-6.2-4.7-8.6C-356.1,2.5-352.2,4.7-349.3,7.7L-349.3,7.7z M-370.6,1.7
	c-2.2,2.4-3.7,5.5-4.6,8.6c-2.2-0.7-4.1-1.5-6.1-2.5C-378.5,4.7-374.8,2.6-370.6,1.7L-370.6,1.7z M-381.4,39.3c2-1.1,4-1.9,6.1-2.5
	c0.9,3.2,2.4,6.2,4.6,8.6C-374.8,44.4-378.5,42.3-381.4,39.3z M-360.1,45.5c2.2-2.5,3.8-5.5,4.7-8.7c2.2,0.7,4.2,1.5,6.2,2.5
	C-352.2,42.3-356.1,44.5-360.1,45.5L-360.1,45.5z"/>
<path id="icon-2" class="st3" d="M47.1,2.9C43-1.2,34.3,1.5,26.5,9.3c-2,2.1-3.8,4.1-5.5,6.4H9.8c-2.6,0.2-4.9,1.8-6,4.1L2,25.2
	c-0.2,0.5,0.1,1.1,0.6,1.3c0.2,0,0.3,0,0.4,0h4.9c1.7,0,3.5,0.6,3.9,2c-0.9,1.3-1.7,2.5-2.4,3.8c-0.3,0.4-0.2,0.9,0.1,1.2l0.3,0.3
	C6.1,35,3.5,38,2.9,41.8l-0.8,4.9c-0.1,0.5,0.3,1.1,0.8,1.2C2.9,48,3,48,3,48h0.2l4.9-0.8c3.8-0.6,7-3.2,8.1-6.9l0.3,0.3
	c0.3,0.3,0.8,0.4,1.2,0.1c1.3-0.8,2.5-1.7,3.8-2.4c1.4,0.4,2,2.2,2,3.9v4.9c0,0.6,0.4,1,1,1l0.3-0.1l5.3-1.9c2.4-1.1,4-3.3,4.1-6V29
	c2.3-1.7,4.4-3.5,6.4-5.5C48.5,15.7,51.3,7.1,47.1,2.9z M13,26.5c-1.4-1.4-3.1-2.2-5.1-2.1H4.3l1.4-4c0.8-1.6,2.4-2.6,4.1-2.8h9.7
	c-1.7,2.2-3.4,4.6-5.2,7.1L13,26.5z M7.8,45.3l-3.5,0.6l0.6-3.5c0.6-3.4,3.1-6.2,6.6-6.9l3.3,3.3C13.8,42,11.2,44.7,7.8,45.3z
	 M32.4,40.2c-0.2,1.8-1.2,3.3-2.8,4.1l-4,1.4v-3.5c0.1-1.9-0.7-3.7-2.1-5.1l1.9-1.4c2.4-1.8,4.9-3.5,7.1-5.2V40.2L32.4,40.2z
	 M32.9,27.5l-0.2,0.1L24,34.2c-2.2,1.5-4.4,3-6.7,4.4l-0.7-0.7l-0.2-0.4l-3.9-3.9l-0.4-0.2l-0.7-0.7c1.5-2.3,2.9-4.5,4.4-6.7
	l6.6-8.7l0.1-0.2c1.7-2.3,3.5-4.3,5.4-6.4c6.8-6.9,14.6-9.7,17.7-6.5c3.1,3.2,0.4,11.1-6.4,17.8C37.3,24,35.2,25.9,32.9,27.5z
	 M31.5,11.5c-2,2-2,5.1,0,7.1c2,2,5.1,2,7.1,0c2-2,2-5.1,0-7.1l0,0C36.6,9.5,33.4,9.5,31.5,11.5z M37.2,17.1c-1.2,1.2-3.1,1.2-4.3,0
	C32.3,16.6,32,15.8,32,15c0-1.7,1.4-3,3-3s3,1.4,3,3C38,15.8,37.7,16.6,37.2,17.1L37.2,17.1z"/>
</svg>
