<?xml version="1.0" encoding="utf-8"?>
<!-- Generator: Adobe Illustrator 22.0.1, SVG Export Plug-In . SVG Version: 6.00 Build 0)  -->
<svg version="1.1" id="Layer_1" xmlns="http://www.w3.org/2000/svg" xmlns:xlink="http://www.w3.org/1999/xlink" x="0px" y="0px"
	 viewBox="0 0 51 48" style="enable-background:new 0 0 51 48;" xml:space="preserve">
<style type="text/css">
	.st0{fill:#A49AC3;}
	.st1{fill:#5C5D5D;}
	.st2{fill:#FFFFFF;}
	.st3{fill:#50A0B2;}
</style>
<path id="icon" class="st0" d="M45.4-240v-9.7c0-0.4-0.2-0.8-0.5-0.9l-8.6-5v-3.5c0-0.4-0.2-0.7-0.5-0.9l-8.6-5.1l0,0l-0.5-0.2l0,0
	h-0.1l-0.4,0.1h-0.1l-8.6,5.1c-0.3,0.2-0.5,0.6-0.5,0.9v3.5l-8.6,4.9c-0.3,0.2-0.5,0.6-0.6,0.9v9.7l-4.3,2.5
	c-0.3,0.2-0.5,0.6-0.5,0.9v10.2c0,0.4,0.2,0.7,0.5,0.9l8.6,5.1l0.6,0.2l0.6-0.2l4.5-2.6l8.4,4.8l0.5,0.1l0.5-0.1l8.4-4.8l4.5,2.6
	l0.6,0.2l0.6-0.2l8.6-5.1c0.3-0.2,0.5-0.6,0.5-0.9v-10.2c0-0.4-0.2-0.7-0.5-0.9L45.4-240z M47.9-228.6l-6.4-4v-7.2l6.4,3.8V-228.6
	L47.9-228.6z M26.5-253.3l6.8,4.2l-6.8,4l-6.8-4L26.5-253.3z M34-251.2l-6.5-4v-7.2l6.5,3.8V-251.2L34-251.2z M25.4-262.3v7.2
	l-6.5,4v-7.3L25.4-262.3z M11.5-239.8v7.2l-6.5,4v-7.3L11.5-239.8z M20-236v7.3l-6.5-4v-7.2L20-236z M12.6-222.6l-6.8-4l6.8-4.2
	l6.8,4.2L12.6-222.6z M26.5-220.4l-6.9-3.9l2-1.2c0.3-0.2,0.5-0.6,0.5-0.9v-10.2c0-0.4-0.2-0.7-0.5-0.9l-8.6-5.1l0,0l-0.5-0.2l0,0
	h-0.1l-0.4,0.1h-0.1l-2.2,1.3v-7.7l7-4v4.2c0,0.4,0.2,0.7,0.5,0.9l8.6,5.1l0.6,0.2l0.6-0.2l8.6-5.1c0.3-0.2,0.5-0.6,0.5-0.9v-4.2
	l7.1,4v7.8l-2.2-1.3l0,0l-0.5-0.2l0,0h-0.1l-0.4,0.1h-0.1l-8.6,5.1c-0.3,0.2-0.5,0.6-0.5,0.9v10.2c0,0.4,0.2,0.7,0.5,0.9l2,1.2
	L26.5-220.4z M39.4-239.8v7.2l-6.5,4v-7.3L39.4-239.8z M40.5-222.6l-6.8-4l6.8-4.2l6.8,4.2L40.5-222.6z"/>
<path id="Stats_2" class="st1" d="M440.4-265.5c-0.5,0-1,0.4-1,1l0,0v4.8l-7.2,3.7c-1-1.4-2.6-2.2-4.3-2.2c-3,0-5.5,2.4-5.5,5.5
	c0,1.8,0.9,3.5,2.4,4.5l-2.4,5.4c-0.4-0.1-0.9-0.2-1.3-0.2c-3,0-5.5,2.4-5.5,5.5c0,0.4,0.1,0.9,0.2,1.3l-5.4,2.4
	c-1-1.5-2.7-2.4-4.5-2.4c-3,0-5.5,2.4-5.5,5.5c0,1.8,0.9,3.4,2.3,4.4l-2.8,5.9h-4.6c-0.5,0-1,0.4-1,1l0,0c0,0.5,0.4,1,1,1l0,0h42.4
	c2,0,3.6-1.6,3.6-3.6v-42.3C441.3-265.1,440.8-265.5,440.4-265.5L440.4-265.5z M427.9-256.3c1.3,0,2.5,0.7,3.1,1.9l0,0l0,0
	c0.3,0.5,0.4,1.1,0.4,1.6c0,2-1.6,3.5-3.5,3.5c-2,0-3.5-1.6-3.5-3.5C424.4-254.6,426-256.3,427.9-256.3L427.9-256.3z M421.2-241.1
	c2,0,3.5,1.6,3.5,3.5s-1.6,3.5-3.5,3.5c-2,0-3.5-1.6-3.5-3.5C417.6-239.4,419.2-241,421.2-241.1L421.2-241.1z M406-234.3
	c2,0,3.5,1.6,3.5,3.5s-1.6,3.5-3.5,3.5c-0.5,0-1.1-0.1-1.5-0.4l0,0l0,0c-1.3-0.6-2.1-1.9-2.1-3.2C402.4-232.7,404-234.3,406-234.3
	L406-234.3z M437.7-220.4h-35.6l2.4-5.1c0.5,0.1,1,0.2,1.5,0.2c3,0,5.5-2.4,5.5-5.5c0-0.4-0.1-0.9-0.2-1.3l5.4-2.4
	c1,1.5,2.7,2.4,4.5,2.4c3,0,5.5-2.4,5.5-5.5c0-1.8-0.9-3.5-2.4-4.5l2.4-5.4c0.4,0.1,0.9,0.2,1.3,0.2c3,0,5.5-2.4,5.5-5.5
	c0-0.6-0.1-1.1-0.3-1.7l6.4-3.3v35.6C439.4-221.1,438.7-220.4,437.7-220.4L437.7-220.4L437.7-220.4z"/>
<path id="business_bag" class="st2" d="M829.8-218.4h-37.4c-3.4,0-6.3-2.8-6.3-6.4v-25.3c0-3.4,2.7-6.3,6.3-6.4h37.4
	c3.4,0,6.3,2.8,6.3,6.4v25.3C836.1-221.3,833.4-218.4,829.8-218.4z M792.4-254.6c-2.4,0-4.5,2.1-4.5,4.5v25.3c0,2.4,2,4.5,4.5,4.5
	h37.4c2.4,0,4.5-2.1,4.5-4.5v-25.3c0-2.4-2-4.5-4.5-4.5H792.4z M822.7-254.6h-24.1v-4.5c0-3.4,2.7-6.3,6.3-6.4h11.7
	c3.4,0,6.3,2.8,6.3,6.4L822.7-254.6L822.7-254.6z M800.5-256.5h20.5v-2.7c0-2.4-2-4.5-4.5-4.5h-11.6c-2.4,0-4.5,2.1-4.5,4.5
	L800.5-256.5L800.5-256.5z M828.1-246.5h-33.9c-0.5,0-0.9-0.4-0.9-0.9l0,0c0-0.5,0.4-0.9,0.9-0.9l0,0h33.9c0.5,0,0.9,0.4,0.9,0.9
	l0,0C829-246.9,828.6-246.5,828.1-246.5L828.1-246.5z M828.1-236.6h-33.9c-0.5,0-0.9-0.4-0.9-0.9l0,0c0-0.5,0.4-0.9,0.9-0.9l0,0
	h33.9c0.5,0,0.9,0.4,0.9,0.9l0,0C829-237,828.6-236.6,828.1-236.6L828.1-236.6z M828.1-226.6h-33.9c-0.5,0-0.9-0.4-0.9-0.9l0,0
	c0-0.5,0.4-0.9,0.9-0.9l0,0h33.9c0.5,0,0.9,0.4,0.9,0.9l0,0C829-227,828.6-226.6,828.1-226.6L828.1-226.6z"/>
<path id="target_up" class="st3" d="M25.5,48c-13.2,0-24-10.8-24-24s10.8-24,24-24s24,10.8,24,24S38.7,48,25.5,48z M25.5,1.9
	C13.3,1.9,3.4,11.8,3.4,24s9.9,22.1,22.1,22.1S47.6,36.2,47.6,24S37.7,1.9,25.5,1.9z M4.8,33.9l-1.2-1.4l7.8-6.9l7.7,4.3l1.7-10.2
	l8.7-4.8l0.9,1.6L22.6,21l-2,12L11.7,28L4.8,33.9z M32,26.1l-1.8-0.5l3.4-12l-11.1-2.5L23,9.3l12.9,2.9L32,26.1z"/>
<path id="globe" class="st2" d="M418.8-1L418.8-1c-13.6,0-24.6,11-24.6,24.5s11,24.5,24.5,24.5l0,0l0,0c13.5,0,24.5-11,24.5-24.5
	S432.3-1,418.8-1z M419.8,13.7c2.5-0.1,5.1-0.4,7.5-1c0.8,3.2,1.2,6.6,1.3,9.9h-8.8V13.7z M419.8,11.8V1.2c2.6,0.7,5.3,4.2,7.1,9.7
	C424.5,11.4,422.1,11.7,419.8,11.8z M417.8,1.1v10.7c-2.4-0.1-4.8-0.4-7.1-1C412.4,5.3,415.2,1.8,417.8,1.1z M417.8,13.7v8.8h-8.9
	c0-3.3,0.5-6.7,1.3-9.9C412.7,13.2,415.3,13.6,417.8,13.7L417.8,13.7z M407,22.5h-10.7c0.2-4.9,2-9.5,5.1-13.3
	c2.2,1.2,4.5,2.2,7,2.9C407.4,15.6,407.1,19,407,22.5z M407,24.5c0.1,3.5,0.5,7,1.4,10.4c-2.4,0.7-4.7,1.7-7,2.9
	c-3.1-3.7-4.9-8.4-5.1-13.3L407,24.5L407,24.5z M408.9,24.5h8.9v8.8c-2.5,0.1-5.1,0.4-7.6,1C409.4,31.2,409,27.8,408.9,24.5z
	 M417.8,35.3v10.6c-2.6-0.7-5.4-4.2-7.1-9.7C413,35.7,415.5,35.4,417.8,35.3z M419.8,45.8V35.3c2.4,0.1,4.7,0.4,7.1,1
	C425.1,41.6,422.4,45.2,419.8,45.8z M419.8,33.3v-8.8h8.8c0,3.3-0.5,6.7-1.3,9.9C424.9,33.7,422.3,33.4,419.8,33.3z M430.6,24.5
	h10.8c-0.2,4.9-2,9.5-5.1,13.3c-2.3-1.2-4.6-2.3-7-2.9C430.1,31.4,430.6,28,430.6,24.5z M430.6,22.5c-0.1-3.5-0.5-7-1.4-10.4
	c2.4-0.7,4.8-1.8,7-2.9c3.1,3.7,4.9,8.4,5.1,13.3H430.6z M434.9,7.7c-2,1.1-4,1.9-6.2,2.5c-0.9-3.2-2.4-6.2-4.7-8.6
	C428.1,2.5,431.9,4.7,434.9,7.7z M413.5,1.7c-2.2,2.4-3.7,5.5-4.6,8.6c-2.2-0.7-4.1-1.5-6.1-2.5C405.7,4.7,409.4,2.6,413.5,1.7z
	 M402.7,39.3c2-1.1,4-1.9,6.1-2.5c0.9,3.2,2.4,6.2,4.6,8.6C409.4,44.4,405.7,42.3,402.7,39.3z M424.1,45.5c2.2-2.5,3.8-5.5,4.7-8.7
	c2.2,0.7,4.2,1.5,6.2,2.5C431.9,42.3,428.1,44.5,424.1,45.5L424.1,45.5z"/>
<path id="icon-2" class="st0" d="M831.3,2.9c-4.1-4.1-12.8-1.4-20.6,6.4c-2,2.1-3.8,4.2-5.5,6.4H794c-2.6,0.2-4.9,1.8-6,4.1
	l-1.9,5.4c-0.2,0.5,0.1,1.1,0.6,1.3c0.1,0,0.2,0.1,0.3,0.1h4.9c1.7,0,3.5,0.6,3.9,2c-0.9,1.3-1.7,2.5-2.4,3.8
	c-0.3,0.4-0.2,0.9,0.1,1.2l0.3,0.3c-3.6,1.3-6.3,4.3-6.9,8.1l-0.8,4.9c-0.1,0.5,0.3,1.1,0.8,1.1c0.1,0,0.1,0,0.2,0h0.2l4.9-0.8
	c3.8-0.6,7-3.2,8.1-6.9l0.3,0.3c0.3,0.3,0.8,0.4,1.2,0.1c1.3-0.8,2.5-1.7,3.8-2.4c1.4,0.4,2,2.2,2,3.9V47c0,0.6,0.4,1,1,1l0.3-0.1
	l5.3-1.9c2.4-1.1,4-3.3,4.1-6V29c2.3-1.7,4.4-3.5,6.4-5.5C832.7,15.7,835.4,7.1,831.3,2.9z M797.1,26.5c-1.3-1.4-3.1-2.2-5.1-2.1
	h-3.5l1.4-4c0.8-1.6,2.4-2.6,4.1-2.8h9.7c-1.7,2.2-3.4,4.6-5.2,7.1L797.1,26.5z M791.9,45.3l-3.5,0.6l0.6-3.5
	c0.6-3.4,3.1-6.2,6.6-6.9l3.3,3.3C798,42,795.4,44.7,791.9,45.3z M816.5,40.2c-0.2,1.8-1.2,3.3-2.8,4.1l-4,1.4v-3.5
	c0.1-1.9-0.7-3.7-2.1-5.1l1.9-1.4c2.4-1.8,4.9-3.5,7.1-5.2L816.5,40.2L816.5,40.2z M817.1,27.5l-0.2,0.1l-8.7,6.6
	c-2.2,1.5-4.4,3-6.7,4.4l-0.7-0.7l-0.2-0.4l-3.9-3.9l-0.4-0.2l-0.7-0.7c1.5-2.3,2.9-4.5,4.4-6.7l6.6-8.7l0.1-0.2
	c1.7-2.3,3.5-4.3,5.4-6.4c6.8-6.8,14.6-9.6,17.8-6.4c3.2,3.2,0.4,11.1-6.4,17.8C821.5,24,819.4,25.9,817.1,27.5L817.1,27.5z
	 M815.6,11.5c-2,2-2,5.1,0,7.1c2,2,5.1,2,7.1,0s2-5.1,0-7.1l0,0C820.7,9.5,817.6,9.5,815.6,11.5L815.6,11.5z M821.3,17.1
	c-1.2,1.2-3.1,1.2-4.3,0c-0.6-0.6-0.9-1.4-0.9-2.2c0-1.7,1.4-3,3-3s3,1.4,3,3C822.2,15.8,821.9,16.6,821.3,17.1L821.3,17.1z"/>
</svg>
