<?xml version="1.0" encoding="utf-8"?>
<!-- Generator: Adobe Illustrator 22.0.1, SVG Export Plug-In . SVG Version: 6.00 Build 0)  -->
<svg version="1.1" id="Layer_1" xmlns="http://www.w3.org/2000/svg" xmlns:xlink="http://www.w3.org/1999/xlink" x="0px" y="0px"
	 viewBox="0 0 100 100" style="enable-background:new 0 0 100 100;" xml:space="preserve">
<style type="text/css">
	.st0{fill:#FFFFFF;}
</style>
<g>
	<circle class="st0" cx="23.2" cy="78.9" r="10.8"/>
	<g>
		<path class="st0" d="M59.3,96c-0.1,0-0.2,0-0.2,0c-3.5-0.1-6.2-3.1-6.1-6.5c0.5-13.3-2.9-23.5-9.9-30.3
			c-11.7-11.3-30-10.1-30.2-10.1c-3.5,0.3-6.5-2.4-6.8-5.8s2.4-6.5,5.8-6.8c1-0.1,24.2-1.6,39.9,13.6c9.7,9.4,14.4,22.8,13.8,39.9
			C65.5,93.3,62.7,96,59.3,96z"/>
	</g>
	<g>
		<path class="st0" d="M90,96L90,96c-3.6-0.1-6.3-3-6.3-6.5c0.5-21.6-5.4-38.9-17.5-51.3C45.3,16.9,12.7,16.6,12.4,16.6
			c-3.5,0-6.3-2.8-6.3-6.3S8.9,4,12.4,4C14,4,50.6,4.3,75.2,29.4c14.6,14.9,21.7,35.2,21.1,60.4C96.2,93.3,93.4,96,90,96z"/>
	</g>
</g>
</svg>
