<?xml version="1.0" encoding="utf-8"?>
<!-- Generator: Adobe Illustrator 22.0.1, SVG Export Plug-In . SVG Version: 6.00 Build 0)  -->
<svg version="1.1" id="Layer_1" xmlns="http://www.w3.org/2000/svg" xmlns:xlink="http://www.w3.org/1999/xlink" x="0px" y="0px"
	 viewBox="0 0 100 100" style="enable-background:new 0 0 100 100;" xml:space="preserve">
<style type="text/css">
	.st0{fill:#FFFFFF;}
</style>
<g>
	<polygon class="st0" points="10.4,88.2 10.4,7 4.6,7 4.6,94 6.5,94 10.4,94 93.5,94 93.5,88.2 	"/>
	<rect x="15.2" y="19.4" class="st0" width="10.7" height="3.6"/>
	<rect x="15.2" y="41.9" class="st0" width="10.7" height="3.6"/>
	<rect x="15.2" y="53.2" class="st0" width="10.7" height="3.6"/>
	<rect x="15.2" y="30.7" class="st0" width="10.7" height="3.6"/>
	<g>
		<path class="st0" d="M72,12.3v69.2h21.3V12.3H72z M88,17.7H77.4v-3.6H88V17.7z"/>
		<path class="st0" d="M45.4,81.6h21.3V42.5H45.4V81.6z M50.7,44.3h10.7v3.6H50.7V44.3z"/>
		<path class="st0" d="M17,81.6h21.3V63.8H17V81.6z M22.3,65.6H33v3.6H22.3V65.6z"/>
	</g>
</g>
</svg>
