<?xml version="1.0" encoding="utf-8"?>
<!-- Generator: Adobe Illustrator 22.0.1, SVG Export Plug-In . SVG Version: 6.00 Build 0)  -->
<svg version="1.1" id="Layer_1" xmlns="http://www.w3.org/2000/svg" xmlns:xlink="http://www.w3.org/1999/xlink" x="0px" y="0px"
	 viewBox="0 0 100 100" style="enable-background:new 0 0 100 100;" xml:space="preserve">
<style type="text/css">
	.st0{fill:#FFFFFF;}
</style>
<g>
	<g>
		<path class="st0" d="M91.4,7H9.5C6.4,7,4,9.4,4,12.5v57.9c0,3,2.4,5.5,5.5,5.5h81.9c3,0,5.5-2.4,5.5-5.5V12.5
			C96.8,9.4,94.4,7,91.4,7z M50.4,72.6c-0.9,0-1.6-0.7-1.6-1.6s0.7-1.6,1.6-1.6c0.9,0,1.6,0.7,1.6,1.6S51.3,72.6,50.4,72.6z
			 M89.6,65.4h-80V12.6h80V65.4z"/>
	</g>
	<path class="st0" d="M63.2,79H50.4H37.6c0,6.4-6.4,11.2-6.4,11.2h19.2h19.2C69.6,90.2,63.2,85.4,63.2,79z"/>
	<polygon class="st0" points="20,40.6 24.8,39 28,47 31.2,45.4 28,37.4 32.8,35.8 20,23 	"/>
</g>
</svg>
